<?xml version="1.0" standalone="no"?>
<!DOCTYPE svg PUBLIC "-//W3C//DTD SVG 20010904//EN"
 "http://www.w3.org/TR/2001/REC-SVG-20010904/DTD/svg10.dtd">
<svg version="1.0" xmlns="http://www.w3.org/2000/svg"
 width="576.000000pt" height="576.000000pt" viewBox="0 0 576.000000 576.000000"
 preserveAspectRatio="xMidYMid meet">
<metadata>
Created by potrace 1.14, written by Peter Selinger 2001-2017
</metadata>
<g transform="translate(0.000000,576.000000) scale(0.100000,-0.100000)"
fill="#000000" stroke="none">
<path d="M2590 4635 l0 -165 -750 0 -750 0 0 -475 0 -475 245 0 245 0 0 245 0
245 1270 0 1270 0 0 -245 0 -245 255 0 255 0 0 475 0 475 -760 0 -760 0 0 165
0 165 -260 0 -260 0 0 -165z"/>
<path d="M1722 3528 l3 -213 290 -5 289 -5 -109 -52 c-241 -114 -534 -215
-860 -298 -118 -30 -223 -55 -232 -55 -48 -1 -45 -16 16 -101 33 -46 88 -131
122 -189 34 -58 64 -107 65 -109 8 -9 366 101 552 171 76 27 204 79 286 114
82 35 157 62 166 59 9 -3 34 -23 56 -46 l39 -40 -29 -23 c-43 -36 -247 -149
-376 -209 -243 -114 -612 -251 -816 -302 l-71 -18 47 -62 c51 -68 151 -226
177 -281 9 -19 23 -34 31 -34 17 0 249 91 382 150 242 107 679 340 827 441 23
16 46 29 51 29 5 0 26 -31 46 -69 l37 -70 -93 -72 c-353 -273 -876 -537 -1398
-707 -69 -22 -155 -48 -192 -57 l-67 -17 44 -59 c57 -73 132 -194 179 -287 20
-40 38 -72 40 -72 10 0 271 101 381 148 373 157 802 391 1107 605 123 87 124
86 113 -36 -15 -172 -47 -258 -125 -341 -79 -84 -125 -100 -290 -100 -74 0
-187 4 -252 8 l-116 7 37 -88 c45 -105 78 -222 88 -318 l8 -70 55 -8 c92 -14
466 -2 534 18 123 34 263 124 359 229 90 98 161 262 193 446 21 124 14 370
-15 515 -70 343 -247 668 -505 927 -47 48 -86 89 -86 91 0 2 27 21 59 41 33
20 108 73 167 117 58 44 110 77 113 72 4 -4 22 -64 40 -133 143 -540 354
-1006 616 -1362 109 -148 332 -376 465 -475 90 -67 280 -188 284 -181 66 115
200 292 294 390 25 26 44 49 41 51 -2 2 -43 24 -90 49 -239 126 -462 312 -641
533 -69 86 -178 245 -178 259 0 6 33 29 72 51 180 101 682 447 676 466 -2 5
-88 83 -193 174 l-190 165 -45 -43 c-128 -123 -518 -423 -532 -409 -16 16
-168 439 -168 467 0 3 106 5 235 5 l235 0 0 215 0 215 -1125 0 -1125 0 2 -212z"/>
</g>
</svg>
