<svg width="16" height="16" viewBox="0 0 16 16" fill="none" xmlns="http://www.w3.org/2000/svg">
<path fill-rule="evenodd" clip-rule="evenodd" d="M14 8C14 11.3137 11.3137 14 8 14C4.68628 14 2 11.3137 2 8C2 4.68628 4.68628 2 8 2H14V8ZM7.9914 13.0372C10.7686 13.0372 13.02 10.7858 13.02 8.0086V2.97994H7.9914C5.21416 2.97994 2.96275 5.23136 2.96275 8.0086C2.96275 10.7858 5.21416 13.0372 7.9914 13.0372Z" fill="#1F1B17"/>
<path fill-rule="evenodd" clip-rule="evenodd" d="M11.6618 8.00837C11.6618 10.0355 10.0185 11.6789 7.99132 11.6789C5.96416 11.6789 4.3208 10.0355 4.3208 8.00837C4.3208 5.98121 5.96416 4.33789 7.99132 4.33789C10.0185 4.33789 11.6618 5.98121 11.6618 8.00837ZM7.99992 10.7505C9.51908 10.7505 10.7506 9.51897 10.7506 7.99977C10.7506 6.48061 9.51908 5.24909 7.99992 5.24909C6.48072 5.24909 5.2492 6.48061 5.2492 7.99977C5.2492 9.51897 6.48072 10.7505 7.99992 10.7505Z" fill="#1F1B17"/>
<path d="M8.00023 8.85983C8.47497 8.85983 8.85983 8.47497 8.85983 8.00022C8.85983 7.52548 8.47497 7.14062 8.00023 7.14062C7.52548 7.14062 7.14062 7.52548 7.14062 8.00022C7.14062 8.47497 7.52548 8.85983 8.00023 8.85983Z" fill="#1F1B17"/>
</svg>
