<svg width="24" height="24" viewBox="0 0 24 24" fill="none" xmlns="http://www.w3.org/2000/svg">
<path fill-rule="evenodd" clip-rule="evenodd" d="M21 12C21 16.9706 16.9706 21 12 21C7.02942 21 3 16.9706 3 12C3 7.02942 7.02942 3 12 3H21V12ZM11.9871 19.5559C16.153 19.5559 19.5301 16.1788 19.5301 12.0129V4.46992H11.9871C7.82124 4.46992 4.44413 7.84704 4.44413 12.0129C4.44413 16.1788 7.82124 19.5559 11.9871 19.5559Z" fill="#EBE0D9"/>
<path fill-rule="evenodd" clip-rule="evenodd" d="M17.4929 12.013C17.4929 15.0538 15.028 17.5188 11.9872 17.5188C8.94649 17.5188 6.48145 15.0538 6.48145 12.013C6.48145 8.9723 8.94649 6.50732 11.9872 6.50732C15.028 6.50732 17.4929 8.9723 17.4929 12.013ZM12.0001 16.1262C14.2789 16.1262 16.1261 14.2789 16.1261 12.0001C16.1261 9.72141 14.2789 7.87412 12.0001 7.87412C9.72133 7.87412 7.87405 9.72141 7.87405 12.0001C7.87405 14.2789 9.72133 16.1262 12.0001 16.1262Z" fill="#EBE0D9"/>
<path d="M11.9998 13.2893C12.712 13.2893 13.2893 12.712 13.2893 11.9998C13.2893 11.2877 12.712 10.7104 11.9998 10.7104C11.2877 10.7104 10.7104 11.2877 10.7104 11.9998C10.7104 12.712 11.2877 13.2893 11.9998 13.2893Z" fill="#EBE0D9"/>
</svg>
